<svg width="4405" height="2480" xmlns="http://www.w3.org/2000/svg" xmlns:xlink="http://www.w3.org/1999/xlink" xml:space="preserve" overflow="hidden"><g transform="translate(2 2)"><path d="M0.499836 52.4491C0.499836 23.7583 23.7583 0.499836 52.4491 0.499836L4348.55 0.499836C4377.24 0.499836 4400.5 23.7583 4400.5 52.4491L4400.5 2423.55C4400.5 2452.24 4377.24 2475.5 4348.55 2475.5L52.4491 2475.5C23.7583 2475.5 0.499836 2452.24 0.499836 2423.55Z" stroke="#000000" stroke-width="4.58333" stroke-miterlimit="8" fill-rule="evenodd"/><path d="M373 234.15C373 154.538 437.538 90.0001 517.15 90.0001L4200.85 90.0001C4280.46 90.0001 4345 154.538 4345 234.15L4345 2240.85C4345 2320.46 4280.46 2385 4200.85 2385L517.15 2385C437.538 2385 373 2320.46 373 2240.85Z" fill="#F2F2F2" fill-rule="evenodd"/><path d="M519 537.979C519 500.435 549.435 470 586.979 470L1632.02 470C1669.56 470 1700 500.435 1700 537.979L1700 1322.02C1700 1359.57 1669.56 1390 1632.02 1390L586.979 1390C549.435 1390 519 1359.57 519 1322.02Z" fill="#FFFFFF" fill-rule="evenodd"/><path d="M1753 537.979C1753 500.435 1783.44 470 1820.98 470L2866.02 470C2903.56 470 2934 500.435 2934 537.979L2934 1322.02C2934 1359.57 2903.56 1390 2866.02 1390L1820.98 1390C1783.44 1390 1753 1359.57 1753 1322.02Z" fill="#FFFFFF" fill-rule="evenodd"/><path d="M2987 537.979C2987 500.435 3017.43 470 3054.98 470L4100.02 470C4137.56 470 4168 500.435 4168 537.979L4168 1322.02C4168 1359.57 4137.56 1390 4100.02 1390L3054.98 1390C3017.43 1390 2987 1359.57 2987 1322.02Z" fill="#FFFFFF" fill-rule="evenodd"/><path d="M513 1482.98C513 1445.44 543.435 1415 580.979 1415L2266.02 1415C2303.56 1415 2334 1445.44 2334 1482.98L2334 2267.02C2334 2304.56 2303.56 2335 2266.02 2335L580.979 2335C543.435 2335 513 2304.56 513 2267.02Z" fill="#FFFFFF" fill-rule="evenodd"/><path d="M2347 1482.98C2347 1445.44 2377.44 1415 2414.98 1415L4100.02 1415C4137.56 1415 4168 1445.44 4168 1482.98L4168 2267.02C4168 2304.56 4137.56 2335 4100.02 2335L2414.98 2335C2377.44 2335 2347 2304.56 2347 2267.02Z" fill="#FFFFFF" fill-rule="evenodd"/><path d="M527 219.035C527 210.179 534.179 203 543.035 203L4151.97 203C4160.82 203 4168 210.179 4168 219.035L4168 403.965C4168 412.821 4160.82 420 4151.97 420L543.035 420C534.179 420 527 412.821 527 403.965Z" fill="#FFFFFF" fill-rule="evenodd"/></g></svg>